<svg width="32" height="32" viewBox="0 0 32 32" fill="none" xmlns="http://www.w3.org/2000/svg">
<path d="M7 2.15048C7 1.84654 7.12074 1.55504 7.33566 1.34012C7.72195 0.953835 8.32718 0.893904 8.78172 1.19693L12.324 3.55843C13.3711 4.25649 14 5.43167 14 6.69011V26.1758C14 26.1758 10.8398 26.8289 8.99942 26.1758C7.36952 25.5974 7 22.2082 7 22.2082V2.15048Z" fill="url(#paint0_linear_217641_1572)"/>
<path d="M7 2.15048C7 1.84654 7.12074 1.55504 7.33566 1.34012C7.72195 0.953835 8.32718 0.893904 8.78172 1.19693L12.324 3.55843C13.3711 4.25649 14 5.43167 14 6.69011V26.1758C14 26.1758 10.8398 26.8289 8.99942 26.1758C7.36952 25.5974 7 22.2082 7 22.2082V2.15048Z" fill="url(#paint1_linear_217641_1572)"/>
<path d="M7.06551 22.3301L7 22.1664L7.05371 22.9005C7.31473 26.468 10.0103 29.3797 13.5471 29.9146C15.4297 30.1993 17.3508 29.7726 18.9358 28.7177L23.9394 25.3878C25.2115 24.5412 25.9257 23.0723 25.8057 21.5489L25.5899 18.8069C25.5391 18.1625 25.0015 17.6656 24.3552 17.6656C24.1231 17.6656 23.8956 17.7308 23.6988 17.8538L13.2853 24.3623C12.4539 24.8819 11.4689 25.0992 10.496 24.9776C8.95598 24.7851 7.64209 23.7711 7.06551 22.3301Z" fill="url(#paint2_linear_217641_1572)"/>
<path d="M7.06551 22.3301L7 22.1664L7.05371 22.9005C7.31473 26.468 10.0103 29.3797 13.5471 29.9146C15.4297 30.1993 17.3508 29.7726 18.9358 28.7177L23.9394 25.3878C25.2115 24.5412 25.9257 23.0723 25.8057 21.5489L25.5899 18.8069C25.5391 18.1625 25.0015 17.6656 24.3552 17.6656C24.1231 17.6656 23.8956 17.7308 23.6988 17.8538L13.2853 24.3623C12.4539 24.8819 11.4689 25.0992 10.496 24.9776C8.95598 24.7851 7.64209 23.7711 7.06551 22.3301Z" fill="url(#paint3_linear_217641_1572)"/>
<path d="M18.2401 16.8625L16.0838 11.5666C16.0285 11.4307 16 11.2854 16 11.1387C16 10.2981 16.882 9.7492 17.6362 10.1206L22.5046 12.5178C23.8091 13.1602 24.9088 14.1531 25.6806 15.3854L25.895 15.7277C27.5035 18.296 27.3442 21.594 25.4956 23.9953L24.5234 24.9768C24.5156 24.9847 24.5078 24.9926 24.5 25.0004L24.5234 24.9768C26.1661 23.3025 25.6063 20.4926 23.4381 19.5797L19.1351 17.768C18.7285 17.5968 18.4065 17.2711 18.2401 16.8625Z" fill="url(#paint4_linear_217641_1572)"/>
<defs>
<linearGradient id="paint0_linear_217641_1572" x1="19.2271" y1="26.7261" x2="19.2271" y2="2.14184" gradientUnits="userSpaceOnUse">
<stop stop-color="#1B48EF"/>
<stop offset="0.12" stop-color="#1C51F0"/>
<stop offset="0.32" stop-color="#1E69F5"/>
<stop offset="0.57" stop-color="#2190FB"/>
<stop offset="1" stop-color="#26B8F4"/>
</linearGradient>
<linearGradient id="paint1_linear_217641_1572" x1="19.2204" y1="2.79058" x2="19.2204" y2="26.3393" gradientUnits="userSpaceOnUse">
<stop stop-opacity="0"/>
<stop offset="1" stop-opacity="0.1"/>
</linearGradient>
<linearGradient id="paint2_linear_217641_1572" x1="7" y1="24.0706" x2="25.9991" y2="24.0706" gradientUnits="userSpaceOnUse">
<stop stop-color="#39D2FF"/>
<stop offset="0.15" stop-color="#38CEFE"/>
<stop offset="0.29" stop-color="#35C3FA"/>
<stop offset="0.43" stop-color="#2FB0F3"/>
<stop offset="0.55" stop-color="#299AEB"/>
<stop offset="0.58" stop-color="#2692EC"/>
<stop offset="0.76" stop-color="#1A6CF1"/>
<stop offset="0.91" stop-color="#1355F4"/>
<stop offset="1" stop-color="#104CF5"/>
</linearGradient>
<linearGradient id="paint3_linear_217641_1572" x1="9.18621" y1="28.4795" x2="24.0704" y2="19.6178" gradientUnits="userSpaceOnUse">
<stop stop-color="white" stop-opacity="0"/>
<stop offset="1" stop-opacity="0.15"/>
</linearGradient>
<linearGradient id="paint4_linear_217641_1572" x1="14.1276" y1="13.0173" x2="27.9892" y2="22.6374" gradientUnits="userSpaceOnUse">
<stop stop-color="#37BDFF"/>
<stop offset="0.18" stop-color="#33BFFD"/>
<stop offset="0.36" stop-color="#28C5F5"/>
<stop offset="0.53" stop-color="#15D0E9"/>
<stop offset="0.55" stop-color="#12D1E7"/>
<stop offset="0.59" stop-color="#1CD2E5"/>
<stop offset="0.77" stop-color="#42D8DC"/>
<stop offset="0.91" stop-color="#59DBD6"/>
<stop offset="1" stop-color="#62DCD4"/>
</linearGradient>
</defs>
</svg>
