<svg height="20" width="15" viewBox="0 0 12 16" fill="none" xmlns="http://www.w3.org/2000/svg">
  <path
    d="M0 2V14C0 15.1046 0.89543 16 2 16H11.5C11.7761 16 12 15.7761 12 15.5C12 15.2239 11.7761 15 11.5 15H2C1.44772 15 1 14.5523 1 14H11C11.5523 14 12 13.5523 12 13V2C12 0.895431 11.1046 0 10 0H2C0.895431 0 0 0.89543 0 2ZM10 1C10.5523 1 11 1.44772 11 2V13H1V2C1 1.44772 1.44772 1 2 1H10ZM6.75 3.75C6.75 3.33579 6.41421 3 6 3C5.58579 3 5.25 3.33579 5.25 3.75C5.25 4.16421 5.58579 4.5 6 4.5C6.41421 4.5 6.75 4.16421 6.75 3.75ZM6.5 10.5C6.5 10.7761 6.27614 11 6 11C5.72386 11 5.5 10.7761 5.5 10.5V6.5C5.5 6.22386 5.72386 6 6 6C6.27614 6 6.5 6.22386 6.5 6.5V10.5Z"
    fill="#323130"
  />
</svg>
