<?xml version="1.0" encoding="UTF-8" standalone="no"?>
<!-- Created with Inkscape (http://www.inkscape.org/) -->

<svg
   width="599.28253mm"
   height="124.80301mm"
   viewBox="0 0 599.28253 124.80301"
   version="1.1"
   id="svg1"
   xml:space="preserve"
   inkscape:version="1.3 (0e150ed6c4, 2023-07-21)"
   sodipodi:docname="Maccor M.svg"
   xmlns:inkscape="http://www.inkscape.org/namespaces/inkscape"
   xmlns:sodipodi="http://sodipodi.sourceforge.net/DTD/sodipodi-0.dtd"
   xmlns="http://www.w3.org/2000/svg"
   xmlns:svg="http://www.w3.org/2000/svg"><sodipodi:namedview
     id="namedview1"
     pagecolor="#ffffff"
     bordercolor="#000000"
     borderopacity="0.25"
     inkscape:showpageshadow="2"
     inkscape:pageopacity="0.0"
     inkscape:pagecheckerboard="0"
     inkscape:deskcolor="#d1d1d1"
     inkscape:document-units="mm"
     inkscape:zoom="0.76167929"
     inkscape:cx="-110.93908"
     inkscape:cy="-332.81724"
     inkscape:window-width="1920"
     inkscape:window-height="1111"
     inkscape:window-x="-9"
     inkscape:window-y="-9"
     inkscape:window-maximized="1"
     inkscape:current-layer="layer1" /><defs
     id="defs1"><clipPath
       clipPathUnits="userSpaceOnUse"
       id="clipPath58"><path
         style="fill:#000000;stroke-width:1"
         d="m -515.0036,300.38617 c -1.21184,-0.91115 -1.5299,-1.03492 -2.20938,-0.8599 -0.43656,0.11248 -1.92484,0.20154 -3.30729,0.19791 -2.82445,-0.007 -3.94224,-0.41984 -5.47656,-2.02075 -1.44933,-1.51226 -2.0221,-3.18633 -2.0221,-5.91016 0,-2.72386 0.57277,-4.39793 2.0221,-5.91018 1.59187,-1.66095 2.62938,-2.02732 5.74112,-2.02732 3.11592,0 4.16988,0.37322 5.72508,2.02732 1.58096,1.6815 1.81557,2.4281 1.81557,5.77789 0,2.68573 -0.0753,3.19566 -0.64167,4.34649 -0.62767,1.27529 -0.63055,1.31117 -0.13229,1.64211 1.67659,1.11363 1.61822,0.95798 0.91903,2.45076 -0.34782,0.74263 -0.71916,1.35022 -0.82521,1.35022 -0.10602,0 -0.82981,-0.47898 -1.6084,-1.06439 z m -4.45836,-4.35327 c 0,-0.0693 -0.40757,-0.33716 -0.90572,-0.59529 -0.89284,-0.46267 -0.90054,-0.48159 -0.54195,-1.32924 0.44024,-1.0406 0.75681,-1.06611 2.07915,-0.16756 1.3076,0.88855 1.47611,0.644 1.48016,-2.14754 0.004,-2.44592 -0.47895,-3.53436 -1.81134,-4.08628 -1.94948,-0.80748 -3.80442,0.47935 -4.13282,2.86705 -0.34351,2.49762 0.52546,4.86611 1.98046,5.39798 0.50268,0.18378 1.85206,0.22812 1.85206,0.0609 z m -189.59089,3.18828 c -3.23046,-1.63793 -3.35714,-5.71262 -0.23892,-7.68363 l 1.14022,-0.72073 -0.66196,-1.23158 c -1.19745,-2.22787 -0.50993,-4.41341 1.69521,-5.38885 1.79374,-0.79346 4.94681,-0.58512 6.25591,0.41339 2.01735,1.53871 1.71916,4.23061 -0.65058,5.87282 l -1.10768,0.76761 1.15068,1.02113 1.15064,1.02111 0.22783,-0.68344 c 0.12531,-0.3759 0.36672,-0.68279 0.5365,-0.68199 0.28705,0 2.0002,0.41558 2.75788,0.6668 0.25215,0.0836 0.20418,0.44799 -0.1983,1.50693 -0.29197,0.76817 -0.53091,1.42476 -0.53099,1.45907 -6e-5,0.0343 0.47297,0.37545 1.05119,0.75811 1.17866,0.78 1.16996,0.84752 -0.33515,2.59819 l -0.89194,1.03745 -1.15641,-0.80113 -1.15644,-0.80113 -1.33538,0.67757 c -1.08834,0.55221 -1.80031,0.69551 -3.84892,0.77462 -2.28119,0.0881 -2.63737,0.0343 -3.85339,-0.58232 z m 5.36868,-2.67348 0.96915,-0.40492 -1.70524,-1.55369 -1.70522,-1.55366 -0.59531,0.54952 c -0.72578,0.66992 -0.79534,2.05311 -0.13232,2.6307 0.93888,0.81788 1.79221,0.90731 3.16894,0.33205 z m 0.0722,-8.06172 c 1.04809,-1.0481 0.41987,-2.61041 -0.91496,-2.27539 -1.01669,0.25516 -1.32172,1.06452 -0.75977,2.0158 0.54594,0.92422 0.94781,0.9865 1.67473,0.25959 z m 23.26812,10.96862 c -1.36448,-0.42051 -2.92333,-1.8338 -3.78103,-3.428 -0.49236,-0.91519 -0.56938,-1.48783 -0.56938,-4.23333 0,-3.01154 0.0397,-3.2466 0.77028,-4.56523 1.44571,-2.60921 3.58082,-3.64114 7.14658,-3.45397 2.83636,0.14888 4.29575,0.93651 5.44364,2.93801 0.43437,0.75737 0.79087,1.5163 0.79222,1.68653 0,0.17023 -0.82468,0.49766 -1.83568,0.72761 -2.23166,0.50757 -2.39517,0.51218 -2.39517,0.0673 0,-0.19294 -0.30723,-0.63942 -0.68278,-0.99219 -0.96621,-0.90771 -2.75302,-0.89779 -3.6712,0.0204 -0.78674,0.78674 -1.20994,2.72068 -1.01312,4.62981 0.17894,1.7357 0.6631,2.62856 1.64605,3.03573 1.62256,0.67206 3.45041,-0.27782 3.88779,-2.02039 0.0854,-0.34015 0.21212,-0.61846 0.28165,-0.61846 0.0696,0 1.0169,0.25873 2.10518,0.57494 1.89754,0.55136 1.97187,0.60293 1.81116,1.25677 -0.47906,1.94908 -2.21565,3.85971 -4.07347,4.48175 -1.21516,0.40685 -4.38238,0.34885 -5.86272,-0.10734 z m 100.56656,0.11229 c -1.90947,-0.57804 -3.19413,-2.01975 -3.66429,-4.11237 l -0.24389,-1.08543 1.19242,-0.16343 c 0.65585,-0.0899 1.71159,-0.16343 2.34614,-0.16343 0.96626,0 1.15369,0.0836 1.15369,0.5144 0,0.81767 1.09588,1.86965 2.11674,2.03195 0.70189,0.1116 1.10231,0.009 1.65365,-0.425 1.46653,-1.15359 0.58825,-2.28889 -2.33971,-3.02435 -2.2955,-0.57663 -3.53904,-1.22989 -4.56459,-2.39792 -1.43224,-1.63126 -1.09445,-4.23238 0.75139,-5.78554 1.07323,-0.90307 2.35651,-1.2315 4.76377,-1.21922 3.11518,0.0159 4.58047,0.72133 5.5844,2.68835 0.77314,1.51484 0.67088,1.96376 -0.49117,2.15582 -1.90799,0.31539 -3.50573,0.20643 -3.50573,-0.23907 0,-0.63167 -1.22436,-1.70778 -1.94302,-1.70778 -0.35431,0 -0.92528,0.23069 -1.26881,0.5126 -1.01883,0.83611 -0.41037,1.3707 2.44604,2.14924 2.78411,0.7588 3.81294,1.23415 4.63532,2.14167 0.89458,0.98718 1.15755,1.68576 1.15755,3.07498 0,1.83301 -0.90233,3.42691 -2.50031,4.41659 -1.14739,0.71064 -1.51199,0.7919 -3.8159,0.85053 -1.40102,0.0356 -2.95968,-0.06 -3.46369,-0.21259 z m 74.53908,-0.0658 c -1.56895,-0.58301 -2.2402,-1.13196 -3.03281,-2.48036 -0.72814,-1.2387 -0.742,-1.34292 -0.8722,-6.55039 -0.0728,-2.91042 -0.0942,-5.55956 -0.0477,-5.88698 0.08,-0.56359 0.20339,-0.59532 2.31511,-0.59532 h 2.23057 l 0.029,4.16719 c 0.0448,6.44358 0.14062,7.0104 1.2846,7.60198 0.93009,0.48096 1.69294,0.50991 2.47409,0.0939 1.1702,-0.62326 1.22214,-0.89779 1.23095,-6.50521 l 0.008,-5.35781 h 2.39943 2.39945 l -0.0843,5.88698 c -0.0915,6.38945 -0.15078,6.67501 -1.70794,8.23214 -1.31061,1.31061 -2.14193,1.5903 -4.99099,1.67918 -1.79298,0.0559 -2.96487,-0.036 -3.63561,-0.28525 z m 142.87177,0.0582 c -1.43925,-0.40351 -3.44937,-2.32455 -4.1729,-3.98798 -0.85704,-1.97036 -0.86913,-5.58282 -0.0251,-7.48226 0.69951,-1.57409 1.88717,-2.87639 3.33891,-3.6612 0.89332,-0.48292 1.49149,-0.57213 3.83646,-0.57213 3.11589,0 4.16986,0.37322 5.72506,2.02734 1.59469,1.69611 1.81557,2.41512 1.81557,5.91016 0,2.75179 -0.0763,3.31607 -0.57214,4.23333 -0.68106,1.25984 -1.98712,2.53828 -3.26432,3.19521 -1.1008,0.56621 -5.13837,0.77018 -6.68158,0.33753 z m 4.15068,-3.65842 c 1.19957,-0.45609 1.73514,-1.724 1.73514,-4.10765 0,-2.55916 -0.50885,-3.61474 -1.97596,-4.09893 -2.75294,-0.90855 -4.62992,1.72884 -3.88173,5.45436 0.5071,2.5251 2.03573,3.5456 4.12255,2.75222 z m -476.62954,-4.08413 v -7.82873 l 5.09322,0.004 c 4.79007,0.004 5.15581,0.0398 6.14456,0.59981 1.48132,0.83896 2.22228,2.60892 1.75088,4.18232 -0.18161,0.60619 -0.69123,1.43187 -1.13245,1.83488 -0.73771,0.67379 -0.76107,0.74581 -0.2904,0.89519 0.28151,0.0894 0.85473,0.52033 1.27378,0.95774 0.6378,0.66572 0.77851,1.064 0.86352,2.44436 0.0859,1.39491 0.006,1.78959 -0.51782,2.56079 -1.24383,1.83092 -1.83271,1.98803 -7.82748,2.08836 l -5.35781,0.0897 z m 8.40779,3.66564 c 0.32835,-0.22998 0.58804,-0.69075 0.58804,-1.04333 0,-0.9493 -0.94028,-1.45521 -2.7047,-1.45521 h -1.52863 v 1.45521 1.45521 h 1.52863 c 0.9553,0 1.74918,-0.15447 2.11666,-0.41188 z m -0.61981,-5.66698 c 0.48358,-0.18386 0.67868,-0.45196 0.67868,-0.9326 0,-0.81232 -0.80412,-1.19063 -2.53076,-1.19063 h -1.1734 v 1.19063 1.19062 h 1.1734 c 0.64537,0 1.4788,-0.1161 1.85208,-0.25802 z m 7.62278,9.46267 c 0.0712,-0.18762 1.30614,-3.70692 2.74428,-7.82072 l 2.61475,-7.47964 2.74227,0.0713 2.74225,0.0713 1.53024,4.36562 c 0.84164,2.40109 2.06394,5.88367 2.71619,7.73906 l 1.18594,3.37344 h -2.47388 -2.47388 l -0.36587,-1.25677 -0.36586,-1.25677 -2.5418,-0.0756 -2.5418,-0.0756 -0.36857,1.26622 -0.36859,1.26624 -2.45258,0.0765 c -1.9159,0.0598 -2.42424,0.003 -2.32309,-0.26458 z m 8.84552,-8.82055 c -0.45768,-1.38946 -0.85857,-2.43126 -0.89088,-2.31508 -0.0323,0.11615 -0.34703,1.25299 -0.69937,2.5263 l -0.64066,2.3151 h 1.53154 1.53154 z m 13.31455,3.18778 v -5.95313 h -2.24896 -2.24896 l -0.0377,-1.12448 c -0.0206,-0.61846 -0.0448,-1.42213 -0.0534,-1.78593 l -0.0156,-0.66146 7.0649,-0.0705 7.0649,-0.0705 v 1.8564 1.85642 h -2.38125 -2.38125 v 5.95313 5.95312 h -2.38125 -2.38125 z m 15.875,0 v -5.95313 h -2.24896 -2.24896 v -1.85208 -1.85208 h 7.01146 7.01146 v 1.85208 1.85208 h -2.38125 -2.38125 v 5.95313 5.95312 h -2.38125 -2.38125 z m 12.37697,-1.85193 0.0738,-7.80536 h 6.21001 6.21001 v 1.85208 1.85208 h -3.96875 -3.96875 v 0.79375 0.79375 h 3.70417 3.70416 v 1.85209 1.85208 h -3.67577 -3.67578 l 0.0296,1.45521 0.0296,1.45521 h 4.04305 4.04304 v 1.85208 1.85208 l -6.41617,1.6e-4 -6.41615,1.6e-4 z m 15.93345,-1.5e-4 v -7.80521 h 5.1033 c 4.77195,0 5.17872,0.0387 6.26428,0.59531 2.93796,1.50651 2.89653,5.6592 -0.0757,7.59182 -0.92403,0.60082 -0.95771,0.66622 -0.47675,0.92602 0.78663,0.42492 1.43306,1.36694 2.77905,4.04987 l 1.22783,2.44739 h -2.72519 -2.72518 l -1.31238,-2.67591 c -1.25291,-2.55474 -2.14726,-3.67409 -2.93553,-3.67409 -0.28514,0 -0.36121,0.66858 -0.36121,3.175 v 3.175 h -2.38125 -2.38125 z m 8.34427,-1.99258 c 0.21283,-0.17664 0.38698,-0.65704 0.38698,-1.06752 0,-1.0442 -0.86162,-1.57011 -2.57242,-1.57011 h -1.39633 v 1.62425 1.62425 l 1.59739,-0.14486 c 0.87855,-0.0797 1.77152,-0.28935 1.98438,-0.46601 z m 12.82239,6.57704 v -3.22078 l -2.71198,-4.23492 c -1.49159,-2.3292 -2.8072,-4.39219 -2.92356,-4.58443 -0.16973,-0.28041 0.30842,-0.34954 2.41752,-0.34954 h 2.62911 l 1.45878,2.54439 c 1.66743,2.9083 1.26921,2.98289 3.34293,-0.62616 l 1.1022,-1.91823 h 2.62184 2.62181 l -2.89809,4.49339 -2.89806,4.49339 v 3.31182 3.31181 h -2.38125 -2.38125 z m 64.49989,-4.58431 0.0738,-7.80536 h 6.21001 6.21001 v 1.85208 1.85208 h -3.96875 -3.96875 v 0.79375 0.79375 h 3.70417 3.70416 v 1.85209 1.85208 h -3.67575 -3.6758 l 0.0296,1.45521 0.0296,1.45521 h 4.04302 4.04305 v 1.85208 1.85208 l -6.41615,1.6e-4 -6.41615,1.6e-4 z m 15.93273,7.73891 c 0,-0.0364 -0.0127,-3.51896 -0.0275,-7.73906 l -0.0268,-7.67292 2.27645,-0.0765 2.27645,-0.0764 0.0293,5.23582 c 0.0161,2.87969 0.008,5.5037 -0.0188,5.83112 -0.0479,0.59145 -0.0241,0.59531 3.67488,0.59531 h 3.72311 v 1.98438 1.98437 h -5.95315 c -3.27422,0 -5.95345,-0.0298 -5.95382,-0.0661 z m 14.81667,0 c 0,-0.0364 -0.0127,-3.51896 -0.0275,-7.73906 l -0.0268,-7.67292 2.27645,-0.0765 2.27645,-0.0764 0.0293,5.23582 c 0.0161,2.87969 0.008,5.5037 -0.0188,5.83112 -0.0479,0.59145 -0.0241,0.59531 3.67487,0.59531 h 3.72311 v 1.98438 1.98437 h -5.95312 c -3.27425,0 -5.95344,-0.0298 -5.95384,-0.0661 z m 25.6653,-5.88698 v -5.95313 h -2.24896 -2.24896 l -0.0377,-1.12448 c -0.0206,-0.61846 -0.0448,-1.42213 -0.0534,-1.78593 l -0.0156,-0.66146 7.06488,-0.0705 7.0649,-0.0705 v 1.8564 1.85642 h -2.38125 -2.38125 v 5.95313 5.95312 h -2.38125 -2.38125 z m 12.4347,5.88698 c 0,-0.0364 -0.0124,-3.51896 -0.027,-7.73906 l -0.0262,-7.67292 6.24469,-0.0709 6.2447,-0.0709 v 1.85687 1.85687 h -3.91248 -3.91247 l -0.0605,0.79375 -0.0605,0.79375 h 3.70837 3.70837 v 1.85209 1.85208 h -3.69241 -3.6924 l 0.0544,1.38906 0.0544,1.38906 4.03489,0.073 4.0349,0.073 v 1.84518 1.8452 h -6.35 c -3.4925,0 -6.35032,-0.0298 -6.35072,-0.0661 z m 35.1903,-5.88698 v -5.95313 h -2.24896 -2.24896 v -1.85208 -1.85208 h 7.01146 7.01146 v 1.85208 1.85208 h -2.38125 -2.38125 v 5.95313 5.95312 h -2.38125 -2.38125 z m 20.10833,-1.85208 v -7.80521 h 6.21771 6.21771 v 1.85208 1.85208 h -3.91248 -3.91247 l -0.0605,0.79375 -0.0605,0.79375 h 3.70838 3.70837 v 1.85209 1.85208 h -3.718 -3.71798 l 0.08,1.38906 0.08,1.38907 4.0349,0.073 4.03489,0.073 v 1.84521 1.8452 h -6.35 -6.35 z m 52.3875,0 v -7.80521 h 2.38125 2.38125 v 7.80521 7.8052 h -2.38125 -2.38125 z m 8.73056,7.73906 c 0,-0.0364 -0.0127,-3.51896 -0.0271,-7.73906 l -0.0265,-7.67292 4.19428,-0.0781 c 2.30688,-0.043 4.58838,-0.007 5.07,0.0811 0.48162,0.0876 1.3339,0.57316 1.89397,1.07915 2.38046,2.15059 1.97509,7.21241 -0.71091,8.87733 -0.7902,0.48982 -1.50074,0.64831 -3.38167,0.75427 l -2.38125,0.13417 -0.0764,2.31511 -0.0764,2.3151 h -2.23867 c -1.23124,0 -2.23896,-0.0298 -2.23935,-0.0661 z m 7.60166,-9.00893 c 0.52065,-0.52065 0.51666,-1.70611 -0.008,-2.23028 -0.22561,-0.22561 -1.01439,-0.46823 -1.75287,-0.5392 l -1.34265,-0.12901 v 1.57705 c 0,0.86741 0.0893,1.66783 0.19844,1.77877 0.31699,0.32221 2.46292,-0.0156 2.90459,-0.45733 z m 8.00945,1.26987 v -7.80521 h 3.14367 3.14367 l 1.13837,4.56406 1.13837,4.56406 0.96303,-3.83646 c 0.52967,-2.11005 1.04582,-4.16388 1.14697,-4.56406 l 0.18391,-0.7276 h 3.03768 3.03766 v 7.80521 7.8052 h -1.85208 -1.85209 l -0.0268,-5.62239 -0.0268,-5.6224 -1.40116,5.55625 -1.40115,5.55625 h -1.80856 -1.80853 l -1.36832,-5.55625 -1.36832,-5.55625 -0.0254,5.6224 -0.0254,5.62239 h -1.98438 -1.98437 z m 20.89745,7.40833 c -0.003,-0.21828 -0.005,-3.4925 -0.005,-7.27604 0,-3.78354 0.003,-7.11729 0.005,-7.40834 0.005,-0.514 0.18256,-0.52916 6.22234,-0.52916 h 6.21771 v 1.85208 1.85208 h -3.96875 -3.96875 v 0.79375 0.79375 h 3.70416 3.70417 v 1.85209 1.85208 h -3.70417 -3.70416 v 1.45521 1.45521 h 4.10104 4.10104 v 1.85208 1.85208 h -6.35 c -5.466,0 -6.35064,-0.0553 -6.35463,-0.39687 z m 15.87963,-7.40833 v -7.80521 l 2.18281,0.003 2.18281,0.003 2.71198,4.1425 2.71198,4.1425 v -4.14472 -4.14473 h 2.24896 2.24896 v 7.80521 7.80521 h -2.22515 -2.22514 l -2.6035,-4.00796 -2.6035,-4.00799 -0.073,4.00799 -0.073,4.00796 h -2.24208 -2.24205 z m 21.43125,1.85208 v -5.95313 h -2.24896 -2.24896 v -1.85208 -1.85208 h 7.01146 7.01146 v 1.85208 1.85208 h -2.38125 -2.38125 v 5.95313 5.95312 h -2.38125 -2.38125 z m 21.95859,5.75469 c 0,-0.10914 -0.71538,-3.53015 -1.5875,-7.60225 -0.87212,-4.0721 -1.58567,-7.49514 -1.58567,-7.60677 0,-0.11163 0.99848,-0.20296 2.21882,-0.20296 h 2.21879 l 0.55015,2.97656 c 0.30258,1.63711 0.62968,3.48657 0.72684,4.1099 0.0972,0.62334 0.21635,1.09371 0.26479,1.04527 0.0485,-0.0485 0.51237,-1.68955 1.03098,-3.64689 0.51858,-1.95733 1.0069,-3.76716 1.08513,-4.02182 0.12065,-0.39272 0.47816,-0.46302 2.35461,-0.46302 h 2.21234 l 0.39486,1.38906 c 0.21717,0.76398 0.72652,2.63805 1.13187,4.16457 l 0.73699,2.7755 0.31324,-1.58488 c 0.17227,-0.87167 0.51888,-2.74574 0.77023,-4.16457 l 0.45702,-2.57968 h 2.21771 c 1.21975,0 2.21689,0.0893 2.21588,0.19843 0,0.10915 -0.7154,3.57011 -1.5875,7.69105 -0.87212,4.12091 -1.58567,7.54398 -1.58567,7.60677 0,0.0628 -1.05852,0.11416 -2.35225,0.11416 h -2.35228 l -0.5519,-2.05052 c -0.30355,-1.12778 -0.87598,-3.2894 -1.27206,-4.80361 -0.39608,-1.51421 -0.75242,-2.64531 -0.7919,-2.51354 -0.0803,0.26799 -1.73969,6.49763 -2.19577,8.24319 l -0.2938,1.12448 h -2.37106 c -1.30408,0 -2.37189,-0.0893 -2.37289,-0.19843 z m 38.10183,-7.60677 v -7.80521 h 5.10333 c 4.77192,0 5.17869,0.0387 6.26425,0.59531 2.90073,1.48741 2.86652,5.96924 -0.0581,7.61296 -1.00222,0.5633 -1.03222,0.61463 -0.5202,0.89109 0.81304,0.439 1.44764,1.35837 2.80485,4.06366 l 1.2278,2.44739 h -2.72518 -2.72519 l -1.31236,-2.67591 c -1.25293,-2.55474 -2.14725,-3.67409 -2.93555,-3.67409 -0.28514,0 -0.36118,0.66858 -0.36118,3.175 v 3.175 h -2.38125 -2.38125 z m 8.34427,-1.99258 c 0.43251,-0.35896 0.50739,-1.50844 0.13647,-2.09476 -0.15769,-0.24926 -0.84984,-0.42188 -1.98033,-0.49385 l -1.73791,-0.11067 v 1.65507 1.65508 l 1.59739,-0.14486 c 0.87855,-0.0797 1.77152,-0.28935 1.98438,-0.46601 z m 8.85364,1.98228 v -7.8155 l 2.27883,0.0764 2.27883,0.0765 -0.0132,5.75471 -0.0132,5.75469 h 3.68753 3.6875 v 1.98435 1.9844 h -5.95313 -5.95312 z m 14.55209,0.0317 v -7.82664 h 4.32614 c 5.88346,0 7.13947,0.49514 8.55176,3.37124 0.68945,1.40401 0.74816,1.76231 0.74816,4.56626 0,2.91515 -0.0344,3.10372 -0.82182,4.49792 -0.57116,1.01137 -1.21015,1.6973 -2.09492,2.24896 -1.27275,0.79351 -1.27449,0.79377 -5.99122,0.88132 l -4.7181,0.0876 z m 8.31249,3.29316 c 0.45138,-0.45132 0.56772,-0.95123 0.64317,-2.76407 0.14563,-3.49814 -0.70873,-4.6445 -3.46556,-4.65008 l -0.72758,-0.003 v 4.13809 4.13803 l 1.49945,-0.15476 c 1.01528,-0.10477 1.67738,-0.33263 2.05052,-0.70572 z m 10.20651,4.29218 c 0,-0.10914 -0.71538,-3.53015 -1.5875,-7.60225 -0.87212,-4.07209 -1.58567,-7.49514 -1.58567,-7.60677 0,-0.11163 0.99848,-0.20296 2.21882,-0.20296 h 2.2188 l 0.55014,2.97656 c 0.30258,1.63711 0.62966,3.48658 0.72684,4.10991 0.0972,0.62333 0.21373,1.09635 0.25895,1.05111 0.0707,-0.0707 0.89165,-3.02244 1.95056,-7.0131 l 0.29837,-1.12448 h 2.21999 2.21998 l 0.39487,1.38906 c 0.21717,0.76399 0.72652,2.63806 1.13186,4.16457 l 0.737,2.77551 0.31324,-1.58488 c 0.17229,-0.87167 0.51887,-2.74574 0.77025,-4.16457 l 0.45699,-2.57969 h 2.21771 c 1.21976,0 2.21689,0.0893 2.21586,0.19844 0,0.10914 -0.71538,3.5701 -1.5875,7.69104 -0.87209,4.12091 -1.58565,7.54396 -1.58565,7.60677 0,0.0628 -1.05852,0.11417 -2.35225,0.11417 h -2.35228 l -0.55189,-2.05052 c -0.30356,-1.12779 -0.87596,-3.28941 -1.27204,-4.80362 -0.39608,-1.51421 -0.75245,-2.6453 -0.7919,-2.51354 -0.0803,0.26802 -1.73971,6.49764 -2.1958,8.2432 l -0.29382,1.12448 h -2.37104 c -1.30408,0 -2.37188,-0.0893 -2.37289,-0.19844 z m 20.11016,-7.60677 v -7.80521 h 2.38125 2.38125 v 7.80521 7.80521 h -2.38125 -2.38125 z m 8.99586,0 v -7.80521 h 4.32613 c 5.88346,0 7.13945,0.49514 8.55176,3.37124 0.68944,1.40401 0.74814,1.76231 0.74814,4.56626 0,2.72222 -0.0695,3.17889 -0.66021,4.33552 -0.36311,0.71104 -1.04748,1.58818 -1.52082,1.94921 -1.53229,1.16874 -2.54662,1.36416 -7.14552,1.37657 l -4.29948,0.0116 z m 7.13799,3.93023 c 1.29843,-0.25969 1.85563,-1.38208 1.85684,-3.74029 10e-4,-2.60657 -0.45502,-3.64323 -1.76381,-4.00666 -0.55733,-0.15473 -1.34075,-0.28202 -1.74093,-0.28284 l -0.7276,-0.003 v 4.10105 4.10104 h 0.76067 c 0.41838,0 1.14505,-0.0769 1.61483,-0.17082 z m 9.75123,3.61201 c -0.0485,-0.14465 -0.0549,-3.65697 -0.0141,-7.80521 l 0.0741,-7.54224 h 6.20978 6.20978 v 1.85208 1.85209 h -3.95106 -3.95105 l 0.0226,0.79375 0.0226,0.79375 h 3.66391 3.6639 v 1.85208 1.85208 h -3.66386 -3.66386 l 0.0182,1.45521 0.0182,1.45521 h 4.04254 4.04255 v 1.85208 1.85209 h -6.32795 c -3.95729,0 -6.36099,-0.0985 -6.41615,-0.26297 z m -531.1731,-30.3661 -8.79739,-0.0697 v -54.46752 -54.46752 l -0.72761,-0.11727 c -0.40018,-0.0645 -4.29948,-0.0496 -8.6651,0.0331 l -7.9375,0.15034 -0.0668,54.44028 -0.0668,54.44029 -14.4853,-0.0684 -14.48533,-0.0684 -0.0667,-59.83067 -0.0667,-59.83066 1.08813,-0.98306 c 2.07237,-1.87226 -3.01874,-1.72539 59.80747,-1.72539 63.08416,0 58.90265,-0.11574 60.94593,1.68695 0.74842,0.66032 0.98927,1.11931 1.19726,2.2818 0.16698,0.93318 0.23627,22.43112 0.19315,59.92812 l -0.0672,58.47291 -15.0151,0.0683 -15.01511,0.0683 v -54.77094 -54.77093 h -8.33437 -8.33438 l 1.4e-4,54.83489 1.6e-4,54.8349 h -6.1517 c -3.38344,0 -10.11055,-0.0314 -14.94912,-0.0697 z m 94.58854,0 -12.89843,-0.0687 V 209.0069 149.11208 l 1.04253,-0.94186 c 2.12712,-1.92172 -1.35887,-1.76555 39.40995,-1.76555 20.22605,0 36.83694,0.10082 36.91308,0.22405 0.0762,0.12323 0.49247,0.23412 0.92512,0.24642 1.04148,0.0296 1.7213,0.4183 2.40091,1.37271 l 0.55962,0.78593 -0.0177,59.85404 c -0.01,32.91973 -0.0598,59.89606 -0.11118,59.94742 -0.0514,0.0513 -4.90053,0.0895 -10.776,0.0848 -5.87547,-0.005 -12.91508,-0.01 -15.64359,-0.0108 l -4.96094,-0.003 V 238.9734 c 0,-31.53618 -0.0114,-31.85016 -1.16814,-32.11934 -0.30342,-0.0706 -4.18306,-0.0977 -8.62145,-0.0602 l -8.06979,0.0681 -0.13229,3.83646 c -0.0728,2.11005 -0.12486,16.07013 -0.11575,31.0224 l 0.0167,27.18594 -2.5301,0.0201 c -1.39155,0.0111 -2.70867,0.0409 -2.92695,0.0661 -0.21828,0.0251 -6.20118,0.0151 -13.29532,-0.0228 z m 36.33145,-76.53751 c 0.49731,-0.26616 0.51178,-0.72593 0.51178,-16.27188 v -15.99792 h -8.81062 c -6.49994,0 -8.89389,0.0833 -9.12813,0.3175 -0.23968,0.23969 -0.3175,4.09897 -0.3175,15.7466 v 15.42909 l 0.8599,0.52429 c 0.8055,0.49112 1.35062,0.52435 8.61634,0.52528 4.84272,5.3e-4 7.94872,-0.1019 8.26823,-0.2729 z m 54.8576,76.47388 c -7.72518,-0.14253 -7.68988,-0.13576 -8.45805,-1.62124 -0.32612,-0.63063 -0.37943,-8.84264 -0.37943,-58.44298 v -57.70823 l 0.63235,-1.37211 c 0.86064,-1.86745 1.39438,-2.40036 2.92052,-2.91596 1.19195,-0.4027 4.49858,-0.44052 38.51688,-0.44052 h 37.21301 l 0.54245,0.59531 c 1.46307,1.6057 1.41086,0.69926 1.33736,23.22323 l -0.0678,20.76375 -14.81664,0.0451 c -8.14919,0.0248 -15.20362,-0.0185 -15.67659,-0.0962 l -0.85987,-0.14126 v -14.90331 c 0,-11.63324 -0.0726,-14.94981 -0.33073,-15.11522 -1.16977,-0.74952 -2.44509,-0.86984 -9.26044,-0.87367 -4.20915,-0.002 -7.07758,0.0961 -7.07758,0.24302 0,0.13586 -0.32274,0.28469 -0.71715,0.33073 -0.50297,0.0587 -0.77166,0.28127 -0.89966,0.74518 -0.10039,0.3638 -0.19045,21.4974 -0.20011,46.96354 -0.0172,44.91696 -0.003,46.31989 0.47906,46.89739 0.49609,0.59467 0.50583,0.59531 8.92087,0.59127 4.63336,-0.002 8.57213,-0.098 8.75284,-0.21273 0.25429,-0.16149 0.34401,-3.70483 0.39688,-15.67251 l 0.0683,-15.46384 15.54427,-0.0683 15.54427,-0.0683 v 21.2422 c 0,23.43512 0.11993,21.81045 -1.69249,22.93059 -0.89863,0.55536 -0.91718,0.55573 -32.08094,0.61701 -17.14997,0.0337 -34.40819,0.003 -38.35159,-0.071 z m 89.40691,0.0534 c -0.90054,-0.0668 -1.28243,-0.27673 -2.05052,-1.12689 l -0.94387,-1.04476 V 207.9419 149.09535 l 1.2288,-1.08163 c 0.67585,-0.5949 1.65812,-1.20552 2.18281,-1.35692 0.9734,-0.28088 74.30508,-0.24981 75.20911,0.0319 0.70607,0.22 1.28979,0.80759 1.80279,1.81485 0.4499,0.88328 0.48678,2.27423 0.57597,21.71353 l 0.0953,20.76979 -10.05417,0.086 c -5.52979,0.0473 -12.67354,0.005 -15.875,-0.0934 l -5.82083,-0.17939 0.0705,-14.95551 c 0.0661,-14.03381 0.0417,-14.97737 -0.39688,-15.31017 -0.3674,-0.27879 -2.26343,-0.35646 -8.86285,-0.36308 l -8.39549,-0.008 -0.1205,0.59532 c -0.0663,0.32742 -0.18907,21.75867 -0.27286,47.62499 l -0.15235,47.02969 h 9.12924 9.12926 l 0.0683,-15.54427 0.0683,-15.54427 15.41198,-0.0683 c 12.05799,-0.0534 15.41375,-0.13979 15.42002,-0.39688 0.005,-0.18861 0.11819,-0.13984 0.26657,0.11448 0.3751,0.64284 0.57417,41.94725 0.20566,42.66623 -0.52901,1.03211 -1.63192,1.99567 -2.44483,2.13592 -0.85765,0.14796 -73.5711,0.32547 -75.47438,0.18423 z m 110.68889,-0.0534 c -16.49841,-0.12922 -16.89788,-0.14452 -17.29034,-0.66146 -0.22095,-0.29104 -0.62804,-1.04505 -0.90463,-1.67558 -0.48906,-1.1149 -0.5029,-2.72605 -0.5029,-58.63186 0,-41.4872 0.0818,-57.72025 0.29411,-58.3291 0.34523,-0.99031 2.28108,-2.55739 3.64824,-2.95326 0.64899,-0.18791 12.58604,-0.239 37.46494,-0.16034 20.08188,0.0635 36.83723,0.15841 37.2341,0.21093 0.39688,0.0525 1.05172,0.4256 1.45521,0.82908 l 0.73361,0.73361 0.0679,59.12569 0.0679,59.12569 -0.96171,1.06448 c -0.52893,0.58547 -1.27386,1.14456 -1.65536,1.2424 -0.83892,0.21519 -36.30689,0.2626 -59.65106,0.0797 z m 30.14429,-13.43165 c 0.16013,-0.10691 0.42802,-0.45445 0.59532,-0.7723 0.40587,-0.77106 0.44077,-93.10124 0.0353,-93.35183 -0.1479,-0.0914 -0.19717,-0.28224 -0.10951,-0.42408 0.0877,-0.14184 0.0111,-0.4366 -0.17021,-0.65503 -0.28257,-0.34047 -1.55056,-0.38863 -8.88632,-0.3375 l -8.55673,0.0596 -0.009,44.73294 c -0.005,24.60312 -0.0773,45.95334 -0.1609,47.44492 -0.14118,2.51913 -0.11702,2.71258 0.33962,2.7204 0.27041,0.005 0.72274,0.18322 1.00523,0.39687 0.42405,0.32074 1.83095,0.38776 8.0698,0.38441 4.15591,-0.002 7.6872,-0.0915 7.8473,-0.19844 z m 52.42711,13.49264 -5.75468,-0.0713 v -61.25001 -61.25101 l 38.8276,0.10293 c 21.35519,0.0566 39.16558,0.14821 39.57866,0.20356 0.41307,0.0554 0.97926,0.38251 1.2582,0.72703 0.49241,0.60817 0.50519,1.30379 0.43958,23.91839 l -0.0676,23.292 -1.57568,0.87248 c -1.60913,0.89099 -4.78477,2.00027 -7.15557,2.49949 -3.48608,0.73408 -4.10104,0.95041 -4.10104,1.44269 0,0.18679 0.38696,0.39872 0.8599,0.47095 2.62016,0.40018 4.41238,0.86558 5.44243,1.41326 0.63696,0.33867 1.5631,0.69174 2.0581,0.78461 0.49499,0.0929 0.89999,0.24854 0.89999,0.34597 0,0.25812 1.62483,0.83047 1.89086,0.66605 0.12419,-0.0768 0.22581,-0.0135 0.22581,0.14064 0,0.15411 0.0893,0.25661 0.19843,0.22778 0.10914,-0.0288 0.46633,0.0387 0.79375,0.15012 l 0.59532,0.20254 v 32.52592 32.52591 h -15.34584 -15.34582 v -28.66771 -28.66771 l -0.75055,-0.57519 c -0.75808,-0.58098 -1.01279,-0.78523 -3.87966,-3.11092 l -1.5875,-1.28783 -6.15048,-0.0328 -6.1505,-0.0328 -0.0672,31.25362 -0.0672,31.25363 h -9.6573 c -5.31151,0 -12.2469,-0.0321 -15.41197,-0.0713 z m 43.13436,-76.67286 0.58804,-0.41188 v -15.21051 -15.21056 l -0.64942,-0.64943 -0.64942,-0.64944 h -8.34641 -8.34642 v 13.05572 c 0,7.18064 -0.0775,14.32258 -0.17224,15.87097 l -0.17225,2.81525 0.89985,0.39055 c 1.36816,0.5938 16.00039,0.59326 16.84827,-5.3e-4 z"
         id="path58" /></clipPath></defs><g
     inkscape:label="Layer 1"
     inkscape:groupmode="layer"
     id="layer1"
     transform="translate(846.88747,-317.29961)"><rect
       style="opacity:1;fill:#171796;stroke:#171796;stroke-width:0.499999;stroke-linecap:round"
       id="rect1"
       width="707.24207"
       height="151.45262"
       x="-880.92633"
       y="119.49474"
       clip-path="url(#clipPath58)"
       transform="translate(-8.3368421,170.90526)" /></g></svg>
